<svg width="35" height="35" viewBox="0 0 35 35" fill="none" xmlns="http://www.w3.org/2000/svg">
<path d="M18.8515 16.7778L23.0406 12.5887L9.51002 4.98402C8.61327 4.49952 7.77319 4.43152 7.03652 4.96135L18.8515 16.7778ZM23.7546 21.6823L28.1094 19.2329C28.9594 18.7569 29.4255 18.0825 29.4255 17.3345C29.4255 16.5879 28.9594 15.9122 28.1109 15.4362L24.1683 13.2219L19.7299 17.6589L23.7546 21.6823ZM6.30835 5.99127C6.21769 6.27035 6.16669 6.58202 6.16669 6.92344V27.7555C6.16669 28.2953 6.28569 28.7599 6.50102 29.1297L17.9718 17.6575L6.30835 5.99127ZM18.8515 18.5359L7.44452 29.9443C7.66269 30.0279 7.89785 30.0718 8.14577 30.0718C8.58777 30.0718 9.04819 29.9414 9.5171 29.6808L22.6284 22.3184L18.8515 18.5359Z" fill="white"/>
</svg>
