<svg width="35" height="35" viewBox="0 0 35 35" fill="none" xmlns="http://www.w3.org/2000/svg">
<path d="M28.1088 24.6375C27.7165 25.5519 27.2318 26.4239 26.6623 27.2399C25.9016 28.3265 25.2768 29.0773 24.798 29.4952C24.0543 30.1781 23.2553 30.5294 22.401 30.5492C21.789 30.5492 21.0495 30.375 20.1882 30.0208C19.324 29.6681 18.5307 29.4952 17.8039 29.4952C17.0432 29.4952 16.2272 29.6681 15.3531 30.0208C14.4804 30.375 13.7749 30.5606 13.2352 30.5776C12.4178 30.613 11.6003 30.2531 10.7858 29.4952C10.2658 29.0419 9.61559 28.2627 8.83501 27.1606C7.99917 25.9861 7.31209 24.6191 6.77376 23.065C6.19717 21.3834 5.90817 19.7571 5.90817 18.1817C5.90817 16.3783 6.29776 14.8214 7.07834 13.5181C7.66873 12.4945 8.51278 11.6402 9.52917 11.0375C10.5314 10.4363 11.6755 10.1127 12.8442 10.0996C13.4958 10.0996 14.3501 10.3008 15.4083 10.6975C16.4666 11.0941 17.1466 11.2953 17.4427 11.2953C17.6665 11.2953 18.4188 11.0587 19.6994 10.5898C20.9078 10.1549 21.9278 9.97498 22.7637 10.0458C25.0303 10.2286 26.7318 11.1211 27.8637 12.7304C25.8378 13.9586 24.8363 15.6771 24.8561 17.8828C24.8731 19.6012 25.4978 21.0306 26.7218 22.1654C27.263 22.6832 27.8944 23.0976 28.5848 23.388C28.4346 23.8229 28.2759 24.238 28.1088 24.6375ZM22.9138 4.19356C22.9138 5.53939 22.4208 6.79739 21.4419 7.96047C20.2576 9.34314 18.8268 10.1436 17.2755 10.0175C17.2552 9.84824 17.2453 9.67792 17.2458 9.50747C17.2458 8.21406 17.8068 6.83139 18.8083 5.69948C19.307 5.12714 19.9417 4.64973 20.7109 4.27006C21.4788 3.89606 22.2041 3.68923 22.8869 3.65381C22.9053 3.83514 22.9138 4.01506 22.9138 4.19356Z" fill="white"/>
</svg>
